# xmcd CD database file
#
# Track frame offsets:
#	150
#	73231
#	96583
#	127599
#	185299
#	214922
#	256899
#	297317
#	328314
#
# Disc length: 4756 seconds
#
# Revision: 0
# Processed by: cddbd v1.5.1PL0 Copyright (c) Steve Scherf et al.
# Submitted via: CDex 1.51
#
DISCID=8e129209
DTITLE=Pat Metheny Group - The PMG Companion, Volume 1 (1976 - 1980) 2/3
DYEAR=2005
DGENRE=Jazz
TTITLE0=Midwestern Nights Dream (Metheny)
TTITLE1=Wrong Is Right (Gary Burton-Larry Coryell)
TTITLE2=Unidentified #3 (version 1)
TTITLE3=Unidentified #3 (version 2)
TTITLE4=O Grande Amor (Antonio Carlos Jobim-Joao Gilberto)
TTITLE5=Meantime (Metheny, or Metheny-Mays)
TTITLE6=Unidentified #4
TTITLE7=Four On Six (Wes Montgomery)
TTITLE8=Unidentified #5 ("circus music") (Metheny-Mays)
EXTD=YEAR: 2005
EXTT0=
EXTT1=
EXTT2=
EXTT3=
EXTT4=
EXTT5=
EXTT6=
EXTT7=
EXTT8=
PLAYORDER=
